<svg width="24" height="25" viewBox="0 0 24 25" fill="none" xmlns="http://www.w3.org/2000/svg">
<g clip-path="url(#clip0_1_208)">
<g clip-path="url(#clip1_1_208)">
<path opacity="0.4" d="M20.6211 8.75078C19.5711 4.13078 15.5411 2.05078 12.0011 2.05078C12.0011 2.05078 12.0011 2.05078 11.9911 2.05078C8.46107 2.05078 4.42107 4.12078 3.37107 8.74078C2.20107 13.9008 5.36107 18.2708 8.22107 21.0208C9.28107 22.0408 10.6411 22.5508 12.0011 22.5508C13.3611 22.5508 14.7211 22.0408 15.7711 21.0208C18.6311 18.2708 21.7911 13.9108 20.6211 8.75078Z" fill="#58247E"/>
<path d="M11.9996 13.761C13.7393 13.761 15.1496 12.3507 15.1496 10.611C15.1496 8.87124 13.7393 7.46094 11.9996 7.46094C10.2599 7.46094 8.84961 8.87124 8.84961 10.611C8.84961 12.3507 10.2599 13.761 11.9996 13.761Z" fill="#58247E"/>
</g>
</g>
<defs>
<clipPath id="clip0_1_208">
<rect width="24" height="24" fill="white" transform="translate(0 0.300781)"/>
</clipPath>
<clipPath id="clip1_1_208">
<rect width="24" height="24" fill="white" transform="translate(0 0.300781)"/>
</clipPath>
</defs>
</svg>
