<svg width="53" height="53" viewBox="0 0 53 53" fill="none" xmlns="http://www.w3.org/2000/svg">
<g clip-path="url(#clip0_1_30)">
<path d="M19.8 24.6001C19.7994 23.1041 20.2647 21.6451 21.1314 20.4258C21.998 19.2064 23.223 18.2873 24.636 17.7961C24.5813 17.4533 24.6016 17.1027 24.6955 16.7684C24.7895 16.4342 24.9548 16.1244 25.1801 15.8602C25.4054 15.5961 25.6853 15.384 26.0006 15.2386C26.3158 15.0931 26.6588 15.0178 27.006 15.0178C27.3532 15.0178 27.6962 15.0931 28.0114 15.2386C28.3267 15.384 28.6066 15.5961 28.8319 15.8602C29.0572 16.1244 29.2226 16.4342 29.3165 16.7684C29.4104 17.1027 29.4307 17.4533 29.376 17.7961C30.7868 18.2893 32.0092 19.2093 32.8736 20.4285C33.738 21.6476 34.2015 23.1056 34.2 24.6001V31.8001L37.8 34.2001V35.4001H16.2V34.2001L19.8 31.8001V24.6001ZM29.4 36.6001C29.4 37.2366 29.1472 37.8471 28.6971 38.2972C28.247 38.7473 27.6365 39.0001 27 39.0001C26.3635 39.0001 25.753 38.7473 25.303 38.2972C24.8529 37.8471 24.6 37.2366 24.6 36.6001H29.4Z" fill="#959595"/>
</g>
<circle cx="26.5" cy="26.5" r="25.5" stroke="#D3D3D3" stroke-width="2"/>
<defs>
<clipPath id="clip0_1_30">
<rect width="24" height="24" fill="white" transform="translate(15 15)"/>
</clipPath>
</defs>
</svg>
