<svg width="24" height="25" viewBox="0 0 24 25" fill="none" xmlns="http://www.w3.org/2000/svg">
<g clip-path="url(#clip0_1_215)">
<g clip-path="url(#clip1_1_215)">
<path d="M20 7.24023C21.5188 7.24023 22.75 6.00901 22.75 4.49023C22.75 2.97145 21.5188 1.74023 20 1.74023C18.4812 1.74023 17.25 2.97145 17.25 4.49023C17.25 6.00901 18.4812 7.24023 20 7.24023Z" fill="#FF5364"/>
<path opacity="0.4" d="M20 8.49023C17.79 8.49023 16 6.70023 16 4.49023C16 3.76023 16.21 3.08023 16.56 2.49023H7C4.24 2.49023 2 4.72023 2 7.47023V13.4502V14.4502C2 17.2002 4.24 19.4302 7 19.4302H8.5C8.77 19.4302 9.13 19.6102 9.3 19.8302L10.8 21.8202C11.46 22.7002 12.54 22.7002 13.2 21.8202L14.7 19.8302C14.89 19.5802 15.19 19.4302 15.5 19.4302H17C19.76 19.4302 22 17.2002 22 14.4502V7.93023C21.41 8.28023 20.73 8.49023 20 8.49023Z" fill="#FF5364"/>
<path d="M12 12.4902C11.44 12.4902 11 12.0402 11 11.4902C11 10.9402 11.45 10.4902 12 10.4902C12.55 10.4902 13 10.9402 13 11.4902C13 12.0402 12.56 12.4902 12 12.4902Z" fill="#FF5364"/>
<path d="M16 12.4902C15.44 12.4902 15 12.0402 15 11.4902C15 10.9402 15.45 10.4902 16 10.4902C16.55 10.4902 17 10.9402 17 11.4902C17 12.0402 16.56 12.4902 16 12.4902Z" fill="#FF5364"/>
<path d="M8 12.4902C7.44 12.4902 7 12.0402 7 11.4902C7 10.9402 7.45 10.4902 8 10.4902C8.55 10.4902 9 10.9402 9 11.4902C9 12.0402 8.56 12.4902 8 12.4902Z" fill="#FF5364"/>
</g>
</g>
<defs>
<clipPath id="clip0_1_215">
<rect width="24" height="24" fill="white" transform="translate(0 0.490234)"/>
</clipPath>
<clipPath id="clip1_1_215">
<rect width="24" height="24" fill="white" transform="translate(0 0.490234)"/>
</clipPath>
</defs>
</svg>
