<svg width="38" height="38" viewBox="0 0 38 38" fill="none" xmlns="http://www.w3.org/2000/svg">
<rect width="38" height="38" rx="11.4" transform="matrix(-1 0 0 1 38 0)" fill="#D7D7D7"/>
<path d="M26.9873 18.2398C27.407 18.2398 27.7473 18.58 27.7473 18.9998C27.7473 19.4195 27.407 19.7598 26.9873 19.7598V18.2398ZM10.4742 19.5372C10.1774 19.2404 10.1774 18.7592 10.4742 18.4624L15.3109 13.6257C15.6077 13.3289 16.0889 13.3289 16.3857 13.6257C16.6825 13.9225 16.6825 14.4037 16.3857 14.7005L12.0864 18.9998L16.3857 23.299C16.6825 23.5958 16.6825 24.077 16.3857 24.3738C16.0889 24.6706 15.6077 24.6706 15.3109 24.3738L10.4742 19.5372ZM26.9873 19.7598H11.0116V18.2398H26.9873V19.7598Z" fill="#212024"/>
</svg>
