<svg width="24" height="25" viewBox="0 0 24 25" fill="none" xmlns="http://www.w3.org/2000/svg">
<g clip-path="url(#clip0_1_225)">
<g clip-path="url(#clip1_1_225)">
<path d="M17.62 11.2398C17.19 11.2398 16.85 10.8898 16.85 10.4698C16.85 10.0998 16.48 9.32984 15.86 8.65984C15.25 8.00984 14.58 7.62984 14.02 7.62984C13.59 7.62984 13.25 7.27984 13.25 6.85984C13.25 6.43984 13.6 6.08984 14.02 6.08984C15.02 6.08984 16.07 6.62984 16.99 7.59984C17.85 8.50984 18.4 9.63984 18.4 10.4598C18.4 10.8898 18.05 11.2398 17.62 11.2398Z" fill="#FE893E"/>
<path d="M21.23 11.2402C20.8 11.2402 20.46 10.8902 20.46 10.4702C20.46 6.92023 17.57 4.04023 14.03 4.04023C13.6 4.04023 13.26 3.69023 13.26 3.27023C13.26 2.85023 13.6 2.49023 14.02 2.49023C18.42 2.49023 22 6.07023 22 10.4702C22 10.8902 21.65 11.2402 21.23 11.2402Z" fill="#FE893E"/>
<path opacity="0.4" d="M11.79 14.7002L8.52 17.9702C8.16 17.6502 7.81 17.3202 7.47 16.9802C6.44 15.9402 5.51 14.8502 4.68 13.7102C3.86 12.5702 3.2 11.4302 2.72 10.3002C2.24 9.16023 2 8.07023 2 7.03023C2 6.35023 2.12 5.70023 2.36 5.10023C2.6 4.49023 2.98 3.93023 3.51 3.43023C4.15 2.80023 4.85 2.49023 5.59 2.49023C5.87 2.49023 6.15 2.55023 6.4 2.67023C6.66 2.79023 6.89 2.97023 7.07 3.23023L9.39 6.50023C9.57 6.75023 9.7 6.98023 9.79 7.20023C9.88 7.41023 9.93 7.62023 9.93 7.81023C9.93 8.05023 9.86 8.29023 9.72 8.52023C9.59 8.75023 9.4 8.99023 9.16 9.23023L8.4 10.0202C8.29 10.1302 8.24 10.2602 8.24 10.4202C8.24 10.5002 8.25 10.5702 8.27 10.6502C8.3 10.7302 8.33 10.7902 8.35 10.8502C8.53 11.1802 8.84 11.6102 9.28 12.1302C9.73 12.6502 10.21 13.1802 10.73 13.7102C11.09 14.0602 11.44 14.4002 11.79 14.7002Z" fill="#FE893E"/>
<path d="M21.9696 18.8193C21.9696 19.0993 21.9196 19.3893 21.8196 19.6693C21.7896 19.7493 21.7596 19.8293 21.7196 19.9093C21.5496 20.2693 21.3296 20.6093 21.0396 20.9293C20.5496 21.4693 20.0096 21.8593 19.3996 22.1093C19.3896 22.1093 19.3796 22.1193 19.3696 22.1193C18.7796 22.3593 18.1396 22.4893 17.4496 22.4893C16.4296 22.4893 15.3396 22.2493 14.1896 21.7593C13.0396 21.2693 11.8896 20.6093 10.7496 19.7793C10.3596 19.4893 9.96961 19.1993 9.59961 18.8893L12.8696 15.6193C13.1496 15.8293 13.3996 15.9893 13.6096 16.0993C13.6596 16.1193 13.7196 16.1493 13.7896 16.1793C13.8696 16.2093 13.9496 16.2193 14.0396 16.2193C14.2096 16.2193 14.3396 16.1593 14.4496 16.0493L15.2096 15.2993C15.4596 15.0493 15.6996 14.8593 15.9296 14.7393C16.1596 14.5993 16.3896 14.5293 16.6396 14.5293C16.8296 14.5293 17.0296 14.5693 17.2496 14.6593C17.4696 14.7493 17.6996 14.8793 17.9496 15.0493L21.2596 17.3993C21.5196 17.5793 21.6996 17.7893 21.8096 18.0393C21.9096 18.2893 21.9696 18.5393 21.9696 18.8193Z" fill="#FE893E"/>
</g>
</g>
<defs>
<clipPath id="clip0_1_225">
<rect width="24" height="24" fill="white" transform="translate(0 0.490234)"/>
</clipPath>
<clipPath id="clip1_1_225">
<rect width="24" height="24" fill="white" transform="translate(0 0.490234)"/>
</clipPath>
</defs>
</svg>
