<svg width="86" height="87" viewBox="0 0 86 87" fill="none" xmlns="http://www.w3.org/2000/svg">
<rect x="0.140442" y="0.85141" width="85.3636" height="85.3636" rx="11.8561" fill="white"/>
<g clip-path="url(#clip0_1_133)">
<g clip-path="url(#clip1_1_133)">
<g clip-path="url(#clip2_1_133)">
<path d="M4.88281 19.8241C4.88281 16.5502 7.53689 13.8961 10.8108 13.8961H25.1739C38.2697 13.8961 48.886 24.5124 48.886 37.6082V62.0443C48.886 65.3182 46.2319 67.9723 42.958 67.9723H28.5949C15.4991 67.9723 4.88281 57.3561 4.88281 44.2602V19.8241Z" fill="#4EA3DB" fill-opacity="0.15"/>
<path d="M51.4901 43.0506C57.083 43.0506 61.6322 38.5014 61.6322 32.909C61.6322 27.318 57.0824 22.7694 51.4901 22.7694C45.8996 22.7694 41.3516 27.318 41.3516 32.909C41.3516 38.5013 45.8996 43.0506 51.4901 43.0506ZM51.4901 24.7913C55.9684 24.7913 59.6109 28.4333 59.6109 32.9096C59.6109 37.3873 55.9678 41.0299 51.4901 41.0299C47.0143 41.0299 43.3728 37.3874 43.3728 32.9096C43.3728 28.4333 47.0143 24.7913 51.4901 24.7913Z" fill="#4EA3DB" stroke="#4EA3DB" stroke-width="0.237121"/>
<path d="M70.2794 38.3168L72.7119 40.3753C73.9569 41.4286 74.2803 43.162 73.6197 44.5728L75.7478 46.8208L70.2794 38.3168ZM70.2794 38.3168C69.5578 37.7072 68.6424 37.4148 67.7023 37.4924L70.2794 38.3168ZM70.2794 38.3168L67.7023 37.4924L70.2794 38.3168ZM67.7023 37.4924C66.7605 37.5705 65.9047 38.0112 65.2945 38.7329C64.0359 40.2209 64.2223 42.457 65.7104 43.7167L68.1422 45.7762M67.7023 37.4924L68.1422 45.7762L67.7023 37.4924ZM68.1422 45.7762C68.8055 46.3369 69.617 46.6107 70.4247 46.6107C71.0696 46.6107 71.7097 46.4315 72.2712 46.0882L74.0036 47.9186V61.093H69.1673C68.8731 51.7525 61.1881 44.2427 51.777 44.2427C42.367 44.2427 34.6832 51.7525 34.389 61.093H32.2825C31.7238 61.093 31.2717 61.5459 31.2717 62.1038V71.8734C31.2717 72.4318 31.7239 72.884 32.2825 72.884H78.573C79.1309 72.884 79.5836 72.4319 79.5836 71.8734V62.1038C79.5836 61.5447 79.1311 61.0918 78.573 61.0918H76.0248M68.1422 45.7762L76.0248 61.0918L68.1422 45.7762ZM66.838 40.0368C66.2987 40.6743 66.3786 41.6326 67.0162 42.1725L69.448 44.232L66.838 40.0368ZM66.838 40.0368C67.0996 39.7272 67.4654 39.5388 67.8693 39.5056C67.9121 39.5023 67.9543 39.5008 67.9969 39.5008C68.3543 39.5008 68.6978 39.6257 68.9736 39.8593L71.406 41.9175C72.0429 42.4568 72.1231 43.4158 71.583 44.0539M66.838 40.0368L71.583 44.0539L66.838 40.0368ZM71.583 44.0539C71.0449 44.6906 70.085 44.7708 69.448 44.232L71.583 44.0539ZM76.0248 61.0918V47.5157C76.0248 47.2571 75.9264 47.009 75.7478 46.8208L76.0248 61.0918ZM51.777 46.2622C60.0733 46.2622 66.8524 52.8654 67.1454 61.0912H36.4109C36.7035 52.8659 43.4818 46.2622 51.777 46.2622ZM77.5624 70.8615H33.2931V63.1132H77.5624V70.8615Z" fill="#4EA3DB"/>
<path d="M70.2794 38.3168L72.7119 40.3753C73.9569 41.4286 74.2803 43.162 73.6197 44.5728L75.7478 46.8208M70.2794 38.3168L75.7478 46.8208M70.2794 38.3168C69.5578 37.7072 68.6424 37.4148 67.7023 37.4924M70.2794 38.3168L67.7023 37.4924M75.7478 46.8208C75.9264 47.009 76.0248 47.2571 76.0248 47.5157V61.0918M75.7478 46.8208L76.0248 61.0918M67.7023 37.4924C66.7605 37.5705 65.9047 38.0112 65.2945 38.7329C64.0359 40.2209 64.2223 42.457 65.7104 43.7167L68.1422 45.7762M67.7023 37.4924L68.1422 45.7762M68.1422 45.7762C68.8055 46.3369 69.617 46.6107 70.4247 46.6107C71.0696 46.6107 71.7097 46.4315 72.2712 46.0882L74.0036 47.9186V61.093H69.1673C68.8731 51.7525 61.1881 44.2427 51.777 44.2427C42.367 44.2427 34.6832 51.7525 34.389 61.093H32.2825C31.7238 61.093 31.2717 61.5459 31.2717 62.1038V71.8734C31.2717 72.4318 31.7239 72.884 32.2825 72.884H78.573C79.1309 72.884 79.5836 72.4319 79.5836 71.8734V62.1038C79.5836 61.5447 79.1311 61.0918 78.573 61.0918H76.0248M68.1422 45.7762L76.0248 61.0918M66.838 40.0368C66.2987 40.6743 66.3786 41.6326 67.0162 42.1725L69.448 44.232M66.838 40.0368L69.448 44.232M66.838 40.0368C67.0996 39.7272 67.4654 39.5388 67.8693 39.5056M66.838 40.0368L71.583 44.0539M69.448 44.232C70.085 44.7708 71.0449 44.6906 71.583 44.0539M69.448 44.232L71.583 44.0539M67.8693 39.5056L67.8597 39.3875M67.8693 39.5056C67.9121 39.5023 67.9543 39.5008 67.9969 39.5008C68.3543 39.5008 68.6978 39.6257 68.9736 39.8593L71.406 41.9175M71.406 41.9175V41.9175ZM71.406 41.9175C72.0429 42.4568 72.1231 43.4158 71.583 44.0539M51.777 46.2622C60.0733 46.2622 66.8524 52.8654 67.1454 61.0912H36.4109C36.7035 52.8659 43.4818 46.2622 51.777 46.2622ZM77.5624 70.8615H33.2931V63.1132H77.5624V70.8615Z" stroke="#4EA3DB" stroke-width="0.237121"/>
</g>
</g>
</g>
<defs>
<clipPath id="clip0_1_133">
<rect width="75.8788" height="59.2803" fill="white" transform="translate(4.88281 13.8961)"/>
</clipPath>
<clipPath id="clip1_1_133">
<rect width="75.8788" height="59.2803" fill="white" transform="translate(4.88281 13.8961)"/>
</clipPath>
<clipPath id="clip2_1_133">
<rect width="75.8788" height="59.2803" fill="white" transform="translate(4.88281 13.8961)"/>
</clipPath>
</defs>
</svg>
