<svg width="86" height="86" viewBox="0 0 86 86" fill="none" xmlns="http://www.w3.org/2000/svg">
<rect x="0.140381" y="0.580078" width="85.3636" height="85.3636" rx="11.8561" fill="white"/>
<g clip-path="url(#clip0_1_152)">
<g clip-path="url(#clip1_1_152)">
<g clip-path="url(#clip2_1_152)">
<path d="M10.8108 14.8089C10.8108 11.5349 13.4649 8.88086 16.7388 8.88086H36.8108C49.9066 8.88086 60.5229 19.4971 60.5229 32.593V63.4187C60.5229 66.6927 57.8688 69.3468 54.5949 69.3468H34.5229C21.4271 69.3468 10.8108 58.7305 10.8108 45.6346V14.8089Z" fill="#4EA3DB" fill-opacity="0.15"/>
<path d="M74.4568 42.4517C74.5251 31.7571 65.8806 23.0008 55.1868 22.932C44.4784 22.8684 35.736 31.5082 35.6671 42.202C35.6176 49.9366 40.1266 56.6546 46.6711 59.8083L46.7345 76.7032C46.7357 77.066 46.9528 77.3924 47.2864 77.5339C47.4007 77.5828 47.5217 77.6064 47.6413 77.6064C47.8705 77.6064 48.0958 77.5194 48.2682 77.3555L54.9697 70.9543L61.7168 77.3108C61.9804 77.5598 62.3684 77.6257 62.6991 77.4825C63.0315 77.3386 63.2461 77.0104 63.2449 76.6476L63.1875 59.9316C69.793 56.8698 74.4073 50.2009 74.4568 42.4517ZM61.4242 74.544L55.5864 69.0447C55.2358 68.714 54.6875 68.7158 54.3387 69.049L48.5402 74.5875L48.4876 60.5707C50.5043 61.2997 52.6738 61.7071 54.9371 61.7217C54.9795 61.7217 55.0212 61.7223 55.0635 61.7223C57.2724 61.7223 59.3948 61.3456 61.3758 60.6614L61.4242 74.544ZM55.0635 59.9088C55.0261 59.9088 54.9867 59.9082 54.9492 59.9082C45.2547 59.8458 37.4184 51.9086 37.4812 42.2135C37.5435 32.5569 45.4185 24.7449 55.061 24.7449C55.0985 24.7449 55.1379 24.7449 55.1753 24.7449C64.8693 24.8077 72.7056 32.745 72.6433 42.4396C72.5817 52.096 64.7061 59.9088 55.0635 59.9088Z" fill="#4EA3DB"/>
<path d="M63.8775 39.5411L58.3644 38.7044L55.9307 33.6906C55.7801 33.3798 55.4658 33.1822 55.1211 33.1797C55.1211 33.1797 55.1176 33.1797 55.1151 33.1797C54.7723 33.1797 54.4586 33.3732 54.3045 33.6802L51.8066 38.6626L46.2856 39.4279C45.9441 39.4757 45.6581 39.7127 45.55 40.0403C45.4411 40.368 45.5276 40.7289 45.7736 40.9713L49.7398 44.8879L48.763 50.3757C48.7025 50.7154 48.8397 51.0599 49.1178 51.2649C49.3958 51.4698 49.7659 51.4982 50.0723 51.3399L55.0214 48.778L59.9404 51.4033C60.0746 51.4747 60.2209 51.5103 60.3672 51.5103C60.5533 51.5103 60.7383 51.453 60.8955 51.3404C61.176 51.1397 61.318 50.797 61.2618 50.4561L60.3551 44.9562L64.3715 41.0904C64.6198 40.851 64.7111 40.4913 64.6072 40.1624C64.5014 39.8341 64.2197 39.593 63.8775 39.5411ZM58.7537 43.9806C58.5391 44.1873 58.4387 44.4865 58.4877 44.7816L59.1732 48.9388L55.4549 46.9536C55.3213 46.8822 55.1744 46.8465 55.0275 46.8465C54.8842 46.8465 54.7415 46.8804 54.611 46.9481L50.8703 48.8843L51.6084 44.7361C51.6609 44.4424 51.5655 44.1419 51.3527 43.9322L48.3549 40.9718L52.5284 40.3928C52.824 40.3517 53.0809 40.1679 53.2146 39.9012L55.1024 36.1358L56.942 39.9254C57.0725 40.1939 57.3271 40.3813 57.622 40.426L61.7902 41.0583L58.7537 43.9806Z" fill="#4EA3DB"/>
</g>
</g>
</g>
<defs>
<clipPath id="clip0_1_152">
<rect width="64.0227" height="68.7652" fill="white" transform="translate(10.8108 8.88086)"/>
</clipPath>
<clipPath id="clip1_1_152">
<rect width="64.0227" height="68.7652" fill="white" transform="translate(10.8108 8.88086)"/>
</clipPath>
<clipPath id="clip2_1_152">
<rect width="64.0227" height="68.7652" fill="white" transform="translate(10.8108 8.88086)"/>
</clipPath>
</defs>
</svg>
