<svg width="81" height="73" viewBox="0 0 81 73" fill="none" xmlns="http://www.w3.org/2000/svg">
<g clip-path="url(#clip0_1_124)">
<g clip-path="url(#clip1_1_124)">
<g clip-path="url(#clip2_1_124)">
<path d="M0.645813 7.06069C0.645813 3.78674 3.29989 1.13266 6.57384 1.13266H26.6458C39.7416 1.13266 50.3579 11.7489 50.3579 24.8448V55.6706C50.3579 58.9445 47.7038 61.5986 44.4299 61.5986H24.3579C11.2621 61.5986 0.645813 50.9823 0.645813 37.8865V7.06069Z" fill="#4EA3DB" fill-opacity="0.15"/>
<path d="M78.5979 32.9282L78.6035 32.9242C78.879 32.7177 79.1064 32.4264 79.1064 32.0485C79.1064 31.6852 78.8927 31.3194 78.5924 31.1652L53.8077 14.512L53.8026 14.5088C53.4397 14.291 52.9373 14.291 52.5744 14.5088L52.5696 14.5119L21.9938 34.939C21.9246 34.9742 21.8662 35.0126 21.8153 35.0635C21.7628 35.116 21.7234 35.1767 21.6874 35.2489C21.6791 35.2653 21.6748 35.2836 21.6748 35.3019V35.3032V35.3044V35.3057V35.3069V35.3082V35.3094V35.3107V35.3119V35.3132V35.3144V35.3157V35.3169V35.3183V35.3196V35.321V35.3223V35.3236V35.3249V35.3262V35.3277V35.329V35.3303V35.3316C21.6148 35.4278 21.581 35.515 21.5632 35.604C21.5446 35.697 21.5446 35.7885 21.5446 35.8816V35.8875V53.7811C21.5446 54.1445 21.7584 54.5104 22.0588 54.6645L46.8437 71.1877C47.0449 71.3218 47.1992 71.4029 47.4301 71.4029C47.6447 71.4029 47.8686 71.333 48.0256 71.1816L78.6632 50.7565L78.6685 50.7528C78.944 50.5461 79.1715 50.2549 79.1715 49.8771C79.1715 49.8705 79.1709 49.864 79.1698 49.8576C79.1019 49.4497 78.8956 49.0844 78.5925 48.9288L73.8359 45.7149V36.0814L78.5979 32.9282ZM28.9602 38.7877C28.9261 38.7561 28.8889 38.7333 28.8707 38.7224C28.8637 38.6937 28.8462 38.6683 28.821 38.6516L24.5455 35.8223L53.2209 16.77L76.0399 31.9826L72.4286 34.3487C72.2235 34.4202 72.0233 34.5537 71.8852 34.6891L47.3649 51.036L28.9602 38.7877ZM29.3297 41.7049L46.7136 53.2942L46.7184 53.2972C47.0813 53.515 47.5836 53.515 47.9465 53.2972L47.9513 53.2941L71.6468 37.4756V45.1934L47.4941 61.1225L29.3297 49.4869V41.7049ZM27.7085 51.013L27.7156 51.018L46.9656 63.3744C47.0512 63.4553 47.1538 63.4933 47.2542 63.5115C47.3543 63.5297 47.461 63.5297 47.5549 63.5297H47.5601C47.779 63.5297 47.9925 63.4577 48.1337 63.387L48.1458 63.3801L72.4151 47.4169L76.0423 49.8761L47.3651 68.9296L23.6687 53.132V37.9289L27.2055 40.246V50.0723C27.2055 50.4422 27.4247 50.8002 27.7085 51.013Z" fill="#4EA3DB" stroke="#4EA3DB" stroke-width="0.237121" stroke-linecap="round" stroke-linejoin="round"/>
<path d="M48.9223 25.6358L48.9242 25.6371L60.5063 33.5754L60.5075 33.5762C60.714 33.7139 60.9321 33.7913 61.0939 33.7913C61.2727 33.7913 61.44 33.7554 61.5911 33.6704C61.7412 33.586 61.8682 33.4572 61.9738 33.2823C62.3378 32.7684 62.1849 32.1126 61.6833 31.7544L61.6817 31.7532L50.1663 23.8161C50.166 23.816 50.1666 23.8163 50.1663 23.8161C49.652 23.4494 48.9935 23.6015 48.6345 24.104C48.2669 24.6185 48.4195 25.2766 48.9223 25.6358Z" fill="#4EA3DB"/>
<path d="M50.1663 23.8161L61.6817 31.7532L61.6833 31.7544C62.1849 32.1126 62.3378 32.7684 61.9738 33.2823C61.8682 33.4572 61.7412 33.586 61.5911 33.6704C61.44 33.7554 61.2727 33.7913 61.0939 33.7913C60.9321 33.7913 60.714 33.7139 60.5075 33.5762L60.5063 33.5754L48.9242 25.6371L48.9223 25.6358C48.4195 25.2766 48.2669 24.6185 48.6345 24.104C48.9935 23.6015 49.652 23.4494 50.1663 23.8161ZM50.1663 23.8161C50.166 23.816 50.1666 23.8163 50.1663 23.8161Z" stroke="#4EA3DB" stroke-width="0.237121" stroke-linecap="round" stroke-linejoin="round"/>
</g>
</g>
</g>
<defs>
<clipPath id="clip0_1_124">
<rect width="79.4356" height="72.322" fill="white" transform="translate(0.645813 0.374847)"/>
</clipPath>
<clipPath id="clip1_1_124">
<rect width="79.4356" height="72.322" fill="white" transform="translate(0.645813 0.374847)"/>
</clipPath>
<clipPath id="clip2_1_124">
<rect width="79.4356" height="72.322" fill="white" transform="translate(0.645813 0.374847)"/>
</clipPath>
</defs>
</svg>
